  0
SECTION
  2
HEADER
  9
$ANGBASE
  50
0.0
  9
$ANGDIR
  70
1
  9
$MEASUREMENT
  70
1
  0
ENDSEC
  0
SECTION
  2
TABLES
  0
TABLE
  2
LTYPE
  70
4
  0
LTYPE
  5
40F
  2
CONTINUOUS
  70
0
  3
Solid line
  72
65
  73
0
  40
0.0
  0
LTYPE
  5
410
  2
DASHDOT
 70
0
  3
Dash Dot ____ _ ____ _
 72
65
 73
4
 40
2.0
 49
1.25
 49
-0.25
 49
0.25
 49
-0.25
  0
LTYPE
  5
411
  2
DASHED
 70
0
  3
Dashed __ __ __ __ __
 72
65
 73
2
 40
0.75
 49
0.5
 49
-0.25
  0
LTYPE
  5
43B
  2
DOTTED
 70
0
  3
Dotted .  .  .  .
 72
65
 73
2
 40
0.2
 49
0.0
 49
-0.2
  0
ENDTAB
  0
TABLE
  2
STYLE
  70
4
  0
STYLE
  2
KICAD
  70
0
  40
0
  41
1
  42
1
  50
0
  71
0
  3
isocp.shx
  0
STYLE
  2
KICADB
  70
0
  40
0
  41
1
  42
1
  50
0
  71
0
  3
isocp.shx
  0
STYLE
  2
KICADI
  70
0
  40
0
  41
1
  42
1
  50
15
  71
0
  3
isocp.shx
  0
STYLE
  2
KICADBI
  70
0
  40
0
  41
1
  42
1
  50
15
  71
0
  3
isocp.shx
  0
ENDTAB
  0
TABLE
  2
LAYER
  70
1
  0
LAYER
  2
BLACK
  70
0
  62
7
  6
CONTINUOUS
  0
ENDTAB
  0
ENDSEC
  0
SECTION
  2
ENTITIES
0
LINE
8
BLACK
6
CONTINUOUS
10
103.8614809999999977
20
-97.0022839999999889
11
103.8712129999999974
21
-97.0087869999999981
0
LINE
8
BLACK
6
CONTINUOUS
10
103.8712129999999974
20
-97.0087869999999981
11
103.8777159999999924
21
-97.0185189999999977
0
LINE
8
BLACK
6
CONTINUOUS
10
103.8777159999999924
20
-97.0185189999999977
11
103.8799999999999955
21
-97.0300000000000011
0
LINE
8
BLACK
6
CONTINUOUS
10
103.8799999999999955
20
-97.0300000000000011
11
103.8799999999999955
21
-98.9699999999999989
0
LINE
8
BLACK
6
CONTINUOUS
10
103.8799999999999955
20
-98.9699999999999989
11
103.8777159999999924
21
-98.9814810000000023
0
LINE
8
BLACK
6
CONTINUOUS
10
103.8777159999999924
20
-98.9814810000000023
11
103.8712129999999974
21
-98.9912130000000019
0
LINE
8
BLACK
6
CONTINUOUS
10
103.8712129999999974
20
-98.9912130000000019
11
103.8614809999999977
21
-98.9977159999999969
0
LINE
8
BLACK
6
CONTINUOUS
10
103.8614809999999977
20
-98.9977159999999969
11
103.8499999999999943
21
-99.
0
LINE
8
BLACK
6
CONTINUOUS
10
103.8499999999999943
20
-99.
11
101.9099999999999966
21
-99.
0
LINE
8
BLACK
6
CONTINUOUS
10
101.9099999999999966
20
-99.
11
101.8985189999999932
21
-98.9977159999999969
0
LINE
8
BLACK
6
CONTINUOUS
10
101.8985189999999932
20
-98.9977159999999969
11
101.8887869999999936
21
-98.9912130000000019
0
LINE
8
BLACK
6
CONTINUOUS
10
101.8887869999999936
20
-98.9912130000000019
11
101.8822839999999985
21
-98.9814810000000023
0
LINE
8
BLACK
6
CONTINUOUS
10
101.8822839999999985
20
-98.9814810000000023
11
101.8799999999999955
21
-98.9699999999999989
0
LINE
8
BLACK
6
CONTINUOUS
10
101.8799999999999955
20
-98.9699999999999989
11
101.8799999999999955
21
-97.0300000000000011
0
LINE
8
BLACK
6
CONTINUOUS
10
101.8799999999999955
20
-97.0300000000000011
11
101.8822839999999985
21
-97.0185189999999977
0
LINE
8
BLACK
6
CONTINUOUS
10
101.8822839999999985
20
-97.0185189999999977
11
101.8887869999999936
21
-97.0087869999999981
0
LINE
8
BLACK
6
CONTINUOUS
10
101.8887869999999936
20
-97.0087869999999981
11
101.8985189999999932
21
-97.0022839999999889
0
LINE
8
BLACK
6
CONTINUOUS
10
101.8985189999999932
20
-97.0022839999999889
11
101.9099999999999966
21
-97.
0
LINE
8
BLACK
6
CONTINUOUS
10
101.9099999999999966
20
-97.
11
103.8499999999999943
21
-97.
0
LINE
8
BLACK
6
CONTINUOUS
10
103.8499999999999943
20
-97.
11
103.8614809999999977
21
-97.0022839999999889
0
LINE
8
BLACK
6
CONTINUOUS
10
106.4014809999999898
20
-97.0022839999999889
11
106.4112129999999894
21
-97.0087869999999981
0
LINE
8
BLACK
6
CONTINUOUS
10
106.4112129999999894
20
-97.0087869999999981
11
106.4177159999999986
21
-97.0185189999999977
0
LINE
8
BLACK
6
CONTINUOUS
10
106.4177159999999986
20
-97.0185189999999977
11
106.4200000000000017
21
-97.0300000000000011
0
LINE
8
BLACK
6
CONTINUOUS
10
106.4200000000000017
20
-97.0300000000000011
11
106.4200000000000017
21
-98.9699999999999989
0
LINE
8
BLACK
6
CONTINUOUS
10
106.4200000000000017
20
-98.9699999999999989
11
106.4177159999999986
21
-98.9814810000000023
0
LINE
8
BLACK
6
CONTINUOUS
10
106.4177159999999986
20
-98.9814810000000023
11
106.4112129999999894
21
-98.9912130000000019
0
LINE
8
BLACK
6
CONTINUOUS
10
106.4112129999999894
20
-98.9912130000000019
11
106.4014809999999898
21
-98.9977159999999969
0
LINE
8
BLACK
6
CONTINUOUS
10
106.4014809999999898
20
-98.9977159999999969
11
106.3900000000000006
21
-99.
0
LINE
8
BLACK
6
CONTINUOUS
10
106.3900000000000006
20
-99.
11
104.4499999999999886
21
-99.
0
LINE
8
BLACK
6
CONTINUOUS
10
104.4499999999999886
20
-99.
11
104.4385189999999994
21
-98.9977159999999969
0
LINE
8
BLACK
6
CONTINUOUS
10
104.4385189999999994
20
-98.9977159999999969
11
104.4287869999999998
21
-98.9912130000000019
0
LINE
8
BLACK
6
CONTINUOUS
10
104.4287869999999998
20
-98.9912130000000019
11
104.4222839999999906
21
-98.9814810000000023
0
LINE
8
BLACK
6
CONTINUOUS
10
104.4222839999999906
20
-98.9814810000000023
11
104.4200000000000017
21
-98.9699999999999989
0
LINE
8
BLACK
6
CONTINUOUS
10
104.4200000000000017
20
-98.9699999999999989
11
104.4200000000000017
21
-97.0300000000000011
0
LINE
8
BLACK
6
CONTINUOUS
10
104.4200000000000017
20
-97.0300000000000011
11
104.4222839999999906
21
-97.0185189999999977
0
LINE
8
BLACK
6
CONTINUOUS
10
104.4222839999999906
20
-97.0185189999999977
11
104.4287869999999998
21
-97.0087869999999981
0
LINE
8
BLACK
6
CONTINUOUS
10
104.4287869999999998
20
-97.0087869999999981
11
104.4385189999999994
21
-97.0022839999999889
0
LINE
8
BLACK
6
CONTINUOUS
10
104.4385189999999994
20
-97.0022839999999889
11
104.4499999999999886
21
-97.
0
LINE
8
BLACK
6
CONTINUOUS
10
104.4499999999999886
20
-97.
11
106.3900000000000006
21
-97.
0
LINE
8
BLACK
6
CONTINUOUS
10
106.3900000000000006
20
-97.
11
106.4014809999999898
21
-97.0022839999999889
0
LINE
8
BLACK
6
CONTINUOUS
10
108.941480999999996
20
-97.0022839999999889
11
108.9512129999999956
21
-97.0087869999999981
0
LINE
8
BLACK
6
CONTINUOUS
10
108.9512129999999956
20
-97.0087869999999981
11
108.9577159999999907
21
-97.0185189999999977
0
LINE
8
BLACK
6
CONTINUOUS
10
108.9577159999999907
20
-97.0185189999999977
11
108.9599999999999937
21
-97.0300000000000011
0
LINE
8
BLACK
6
CONTINUOUS
10
108.9599999999999937
20
-97.0300000000000011
11
108.9599999999999937
21
-98.9699999999999989
0
LINE
8
BLACK
6
CONTINUOUS
10
108.9599999999999937
20
-98.9699999999999989
11
108.9577159999999907
21
-98.9814810000000023
0
LINE
8
BLACK
6
CONTINUOUS
10
108.9577159999999907
20
-98.9814810000000023
11
108.9512129999999956
21
-98.9912130000000019
0
LINE
8
BLACK
6
CONTINUOUS
10
108.9512129999999956
20
-98.9912130000000019
11
108.941480999999996
21
-98.9977159999999969
0
LINE
8
BLACK
6
CONTINUOUS
10
108.941480999999996
20
-98.9977159999999969
11
108.9299999999999926
21
-99.
0
LINE
8
BLACK
6
CONTINUOUS
10
108.9299999999999926
20
-99.
11
106.9899999999999949
21
-99.
0
LINE
8
BLACK
6
CONTINUOUS
10
106.9899999999999949
20
-99.
11
106.9785189999999915
21
-98.9977159999999969
0
LINE
8
BLACK
6
CONTINUOUS
10
106.9785189999999915
20
-98.9977159999999969
11
106.9687869999999918
21
-98.9912130000000019
0
LINE
8
BLACK
6
CONTINUOUS
10
106.9687869999999918
20
-98.9912130000000019
11
106.9622839999999968
21
-98.9814810000000023
0
LINE
8
BLACK
6
CONTINUOUS
10
106.9622839999999968
20
-98.9814810000000023
11
106.9599999999999937
21
-98.9699999999999989
0
LINE
8
BLACK
6
CONTINUOUS
10
106.9599999999999937
20
-98.9699999999999989
11
106.9599999999999937
21
-97.0300000000000011
0
LINE
8
BLACK
6
CONTINUOUS
10
106.9599999999999937
20
-97.0300000000000011
11
106.9622839999999968
21
-97.0185189999999977
0
LINE
8
BLACK
6
CONTINUOUS
10
106.9622839999999968
20
-97.0185189999999977
11
106.9687869999999918
21
-97.0087869999999981
0
LINE
8
BLACK
6
CONTINUOUS
10
106.9687869999999918
20
-97.0087869999999981
11
106.9785189999999915
21
-97.0022839999999889
0
LINE
8
BLACK
6
CONTINUOUS
10
106.9785189999999915
20
-97.0022839999999889
11
106.9899999999999949
21
-97.
0
LINE
8
BLACK
6
CONTINUOUS
10
106.9899999999999949
20
-97.
11
108.9299999999999926
21
-97.
0
LINE
8
BLACK
6
CONTINUOUS
10
108.9299999999999926
20
-97.
11
108.941480999999996
21
-97.0022839999999889
0
LINE
8
BLACK
6
CONTINUOUS
10
111.4814809999999881
20
-97.0022839999999889
11
111.4912130000000019
21
-97.0087869999999981
0
LINE
8
BLACK
6
CONTINUOUS
10
111.4912130000000019
20
-97.0087869999999981
11
111.4977159999999969
21
-97.0185189999999977
0
LINE
8
BLACK
6
CONTINUOUS
10
111.4977159999999969
20
-97.0185189999999977
11
111.5
21
-97.0300000000000011
0
LINE
8
BLACK
6
CONTINUOUS
10
111.5
20
-97.0300000000000011
11
111.5
21
-98.9699999999999989
0
LINE
8
BLACK
6
CONTINUOUS
10
111.5
20
-98.9699999999999989
11
111.4977159999999969
21
-98.9814810000000023
0
LINE
8
BLACK
6
CONTINUOUS
10
111.4977159999999969
20
-98.9814810000000023
11
111.4912130000000019
21
-98.9912130000000019
0
LINE
8
BLACK
6
CONTINUOUS
10
111.4912130000000019
20
-98.9912130000000019
11
111.4814809999999881
21
-98.9977159999999969
0
LINE
8
BLACK
6
CONTINUOUS
10
111.4814809999999881
20
-98.9977159999999969
11
111.4699999999999989
21
-99.
0
LINE
8
BLACK
6
CONTINUOUS
10
111.4699999999999989
20
-99.
11
109.5300000000000011
21
-99.
0
LINE
8
BLACK
6
CONTINUOUS
10
109.5300000000000011
20
-99.
11
109.5185189999999977
21
-98.9977159999999969
0
LINE
8
BLACK
6
CONTINUOUS
10
109.5185189999999977
20
-98.9977159999999969
11
109.5087869999999981
21
-98.9912130000000019
0
LINE
8
BLACK
6
CONTINUOUS
10
109.5087869999999981
20
-98.9912130000000019
11
109.5022839999999889
21
-98.9814810000000023
0
LINE
8
BLACK
6
CONTINUOUS
10
109.5022839999999889
20
-98.9814810000000023
11
109.5
21
-98.9699999999999989
0
LINE
8
BLACK
6
CONTINUOUS
10
109.5
20
-98.9699999999999989
11
109.5
21
-97.0300000000000011
0
LINE
8
BLACK
6
CONTINUOUS
10
109.5
20
-97.0300000000000011
11
109.5022839999999889
21
-97.0185189999999977
0
LINE
8
BLACK
6
CONTINUOUS
10
109.5022839999999889
20
-97.0185189999999977
11
109.5087869999999981
21
-97.0087869999999981
0
LINE
8
BLACK
6
CONTINUOUS
10
109.5087869999999981
20
-97.0087869999999981
11
109.5185189999999977
21
-97.0022839999999889
0
LINE
8
BLACK
6
CONTINUOUS
10
109.5185189999999977
20
-97.0022839999999889
11
109.5300000000000011
21
-97.
0
LINE
8
BLACK
6
CONTINUOUS
10
109.5300000000000011
20
-97.
11
111.4699999999999989
21
-97.
0
LINE
8
BLACK
6
CONTINUOUS
10
111.4699999999999989
20
-97.
11
111.4814809999999881
21
-97.0022839999999889
0
LINE
8
BLACK
6
CONTINUOUS
10
114.0214809999999943
20
-97.0022839999999889
11
114.0312129999999939
21
-97.0087869999999981
0
LINE
8
BLACK
6
CONTINUOUS
10
114.0312129999999939
20
-97.0087869999999981
11
114.037715999999989
21
-97.0185189999999977
0
LINE
8
BLACK
6
CONTINUOUS
10
114.037715999999989
20
-97.0185189999999977
11
114.039999999999992
21
-97.0300000000000011
0
LINE
8
BLACK
6
CONTINUOUS
10
114.039999999999992
20
-97.0300000000000011
11
114.039999999999992
21
-98.9699999999999989
0
LINE
8
BLACK
6
CONTINUOUS
10
114.039999999999992
20
-98.9699999999999989
11
114.037715999999989
21
-98.9814810000000023
0
LINE
8
BLACK
6
CONTINUOUS
10
114.037715999999989
20
-98.9814810000000023
11
114.0312129999999939
21
-98.9912130000000019
0
LINE
8
BLACK
6
CONTINUOUS
10
114.0312129999999939
20
-98.9912130000000019
11
114.0214809999999943
21
-98.9977159999999969
0
LINE
8
BLACK
6
CONTINUOUS
10
114.0214809999999943
20
-98.9977159999999969
11
114.0099999999999909
21
-99.
0
LINE
8
BLACK
6
CONTINUOUS
10
114.0099999999999909
20
-99.
11
112.0699999999999932
21
-99.
0
LINE
8
BLACK
6
CONTINUOUS
10
112.0699999999999932
20
-99.
11
112.0585189999999898
21
-98.9977159999999969
0
LINE
8
BLACK
6
CONTINUOUS
10
112.0585189999999898
20
-98.9977159999999969
11
112.0487869999999901
21
-98.9912130000000019
0
LINE
8
BLACK
6
CONTINUOUS
10
112.0487869999999901
20
-98.9912130000000019
11
112.0422839999999951
21
-98.9814810000000023
0
LINE
8
BLACK
6
CONTINUOUS
10
112.0422839999999951
20
-98.9814810000000023
11
112.039999999999992
21
-98.9699999999999989
0
LINE
8
BLACK
6
CONTINUOUS
10
112.039999999999992
20
-98.9699999999999989
11
112.039999999999992
21
-97.0300000000000011
0
LINE
8
BLACK
6
CONTINUOUS
10
112.039999999999992
20
-97.0300000000000011
11
112.0422839999999951
21
-97.0185189999999977
0
LINE
8
BLACK
6
CONTINUOUS
10
112.0422839999999951
20
-97.0185189999999977
11
112.0487869999999901
21
-97.0087869999999981
0
LINE
8
BLACK
6
CONTINUOUS
10
112.0487869999999901
20
-97.0087869999999981
11
112.0585189999999898
21
-97.0022839999999889
0
LINE
8
BLACK
6
CONTINUOUS
10
112.0585189999999898
20
-97.0022839999999889
11
112.0699999999999932
21
-97.
0
LINE
8
BLACK
6
CONTINUOUS
10
112.0699999999999932
20
-97.
11
114.0099999999999909
21
-97.
0
LINE
8
BLACK
6
CONTINUOUS
10
114.0099999999999909
20
-97.
11
114.0214809999999943
21
-97.0022839999999889
0
LINE
8
BLACK
6
CONTINUOUS
10
116.5614810000000006
20
-97.0022839999999889
11
116.5712130000000002
21
-97.0087869999999981
0
LINE
8
BLACK
6
CONTINUOUS
10
116.5712130000000002
20
-97.0087869999999981
11
116.5777159999999952
21
-97.0185189999999977
0
LINE
8
BLACK
6
CONTINUOUS
10
116.5777159999999952
20
-97.0185189999999977
11
116.5799999999999983
21
-97.0300000000000011
0
LINE
8
BLACK
6
CONTINUOUS
10
116.5799999999999983
20
-97.0300000000000011
11
116.5799999999999983
21
-98.9699999999999989
0
LINE
8
BLACK
6
CONTINUOUS
10
116.5799999999999983
20
-98.9699999999999989
11
116.5777159999999952
21
-98.9814810000000023
0
LINE
8
BLACK
6
CONTINUOUS
10
116.5777159999999952
20
-98.9814810000000023
11
116.5712130000000002
21
-98.9912130000000019
0
LINE
8
BLACK
6
CONTINUOUS
10
116.5712130000000002
20
-98.9912130000000019
11
116.5614810000000006
21
-98.9977159999999969
0
LINE
8
BLACK
6
CONTINUOUS
10
116.5614810000000006
20
-98.9977159999999969
11
116.5499999999999972
21
-99.
0
LINE
8
BLACK
6
CONTINUOUS
10
116.5499999999999972
20
-99.
11
114.6099999999999994
21
-99.
0
LINE
8
BLACK
6
CONTINUOUS
10
114.6099999999999994
20
-99.
11
114.598518999999996
21
-98.9977159999999969
0
LINE
8
BLACK
6
CONTINUOUS
10
114.598518999999996
20
-98.9977159999999969
11
114.5887869999999964
21
-98.9912130000000019
0
LINE
8
BLACK
6
CONTINUOUS
10
114.5887869999999964
20
-98.9912130000000019
11
114.5822840000000014
21
-98.9814810000000023
0
LINE
8
BLACK
6
CONTINUOUS
10
114.5822840000000014
20
-98.9814810000000023
11
114.5799999999999983
21
-98.9699999999999989
0
LINE
8
BLACK
6
CONTINUOUS
10
114.5799999999999983
20
-98.9699999999999989
11
114.5799999999999983
21
-97.0300000000000011
0
LINE
8
BLACK
6
CONTINUOUS
10
114.5799999999999983
20
-97.0300000000000011
11
114.5822840000000014
21
-97.0185189999999977
0
LINE
8
BLACK
6
CONTINUOUS
10
114.5822840000000014
20
-97.0185189999999977
11
114.5887869999999964
21
-97.0087869999999981
0
LINE
8
BLACK
6
CONTINUOUS
10
114.5887869999999964
20
-97.0087869999999981
11
114.598518999999996
21
-97.0022839999999889
0
LINE
8
BLACK
6
CONTINUOUS
10
114.598518999999996
20
-97.0022839999999889
11
114.6099999999999994
21
-97.
0
LINE
8
BLACK
6
CONTINUOUS
10
114.6099999999999994
20
-97.
11
116.5499999999999972
21
-97.
0
LINE
8
BLACK
6
CONTINUOUS
10
116.5499999999999972
20
-97.
11
116.5614810000000006
21
-97.0022839999999889
0
LINE
8
BLACK
6
CONTINUOUS
10
119.1014809999999926
20
-97.0022839999999889
11
119.1112129999999922
21
-97.0087869999999981
0
LINE
8
BLACK
6
CONTINUOUS
10
119.1112129999999922
20
-97.0087869999999981
11
119.1177160000000015
21
-97.0185189999999977
0
LINE
8
BLACK
6
CONTINUOUS
10
119.1177160000000015
20
-97.0185189999999977
11
119.1199999999999903
21
-97.0300000000000011
0
LINE
8
BLACK
6
CONTINUOUS
10
119.1199999999999903
20
-97.0300000000000011
11
119.1199999999999903
21
-98.9699999999999989
0
LINE
8
BLACK
6
CONTINUOUS
10
119.1199999999999903
20
-98.9699999999999989
11
119.1177160000000015
21
-98.9814810000000023
0
LINE
8
BLACK
6
CONTINUOUS
10
119.1177160000000015
20
-98.9814810000000023
11
119.1112129999999922
21
-98.9912130000000019
0
LINE
8
BLACK
6
CONTINUOUS
10
119.1112129999999922
20
-98.9912130000000019
11
119.1014809999999926
21
-98.9977159999999969
0
LINE
8
BLACK
6
CONTINUOUS
10
119.1014809999999926
20
-98.9977159999999969
11
119.0899999999999892
21
-99.
0
LINE
8
BLACK
6
CONTINUOUS
10
119.0899999999999892
20
-99.
11
117.1499999999999915
21
-99.
0
LINE
8
BLACK
6
CONTINUOUS
10
117.1499999999999915
20
-99.
11
117.1385189999999881
21
-98.9977159999999969
0
LINE
8
BLACK
6
CONTINUOUS
10
117.1385189999999881
20
-98.9977159999999969
11
117.1287869999999884
21
-98.9912130000000019
0
LINE
8
BLACK
6
CONTINUOUS
10
117.1287869999999884
20
-98.9912130000000019
11
117.1222839999999934
21
-98.9814810000000023
0
LINE
8
BLACK
6
CONTINUOUS
10
117.1222839999999934
20
-98.9814810000000023
11
117.1199999999999903
21
-98.9699999999999989
0
LINE
8
BLACK
6
CONTINUOUS
10
117.1199999999999903
20
-98.9699999999999989
11
117.1199999999999903
21
-97.0300000000000011
0
LINE
8
BLACK
6
CONTINUOUS
10
117.1199999999999903
20
-97.0300000000000011
11
117.1222839999999934
21
-97.0185189999999977
0
LINE
8
BLACK
6
CONTINUOUS
10
117.1222839999999934
20
-97.0185189999999977
11
117.1287869999999884
21
-97.0087869999999981
0
LINE
8
BLACK
6
CONTINUOUS
10
117.1287869999999884
20
-97.0087869999999981
11
117.1385189999999881
21
-97.0022839999999889
0
LINE
8
BLACK
6
CONTINUOUS
10
117.1385189999999881
20
-97.0022839999999889
11
117.1499999999999915
21
-97.
0
LINE
8
BLACK
6
CONTINUOUS
10
117.1499999999999915
20
-97.
11
119.0899999999999892
21
-97.
0
LINE
8
BLACK
6
CONTINUOUS
10
119.0899999999999892
20
-97.
11
119.1014809999999926
21
-97.0022839999999889
0
LINE
8
BLACK
6
CONTINUOUS
10
108.9339499999999958
20
-93.351979
11
108.9423850000000016
21
-93.3576149999999956
0
LINE
8
BLACK
6
CONTINUOUS
10
108.9423850000000016
20
-93.3576149999999956
11
108.9480209999999971
21
-93.3660500000000013
0
LINE
8
BLACK
6
CONTINUOUS
10
108.9480209999999971
20
-93.3660500000000013
11
108.9499999999999886
21
-93.3759999999999906
0
LINE
8
BLACK
6
CONTINUOUS
10
108.9499999999999886
20
-93.3759999999999906
11
108.9499999999999886
21
-95.6239999999999952
0
LINE
8
BLACK
6
CONTINUOUS
10
108.9499999999999886
20
-95.6239999999999952
11
108.9480209999999971
21
-95.6339499999999987
0
LINE
8
BLACK
6
CONTINUOUS
10
108.9480209999999971
20
-95.6339499999999987
11
108.9423850000000016
21
-95.6423849999999902
0
LINE
8
BLACK
6
CONTINUOUS
10
108.9423850000000016
20
-95.6423849999999902
11
108.9339499999999958
21
-95.648021
0
LINE
8
BLACK
6
CONTINUOUS
10
108.9339499999999958
20
-95.648021
11
108.9239999999999924
21
-95.6499999999999915
0
LINE
8
BLACK
6
CONTINUOUS
10
108.9239999999999924
20
-95.6499999999999915
11
107.6760000000000019
21
-95.6499999999999915
0
LINE
8
BLACK
6
CONTINUOUS
10
107.6760000000000019
20
-95.6499999999999915
11
107.6660499999999985
21
-95.648021
0
LINE
8
BLACK
6
CONTINUOUS
10
107.6660499999999985
20
-95.648021
11
107.6576149999999927
21
-95.6423849999999902
0
LINE
8
BLACK
6
CONTINUOUS
10
107.6576149999999927
20
-95.6423849999999902
11
107.6519789999999972
21
-95.6339499999999987
0
LINE
8
BLACK
6
CONTINUOUS
10
107.6519789999999972
20
-95.6339499999999987
11
107.6499999999999915
21
-95.6239999999999952
0
LINE
8
BLACK
6
CONTINUOUS
10
107.6499999999999915
20
-95.6239999999999952
11
107.6499999999999915
21
-93.3759999999999906
0
LINE
8
BLACK
6
CONTINUOUS
10
107.6499999999999915
20
-93.3759999999999906
11
107.6519789999999972
21
-93.3660500000000013
0
LINE
8
BLACK
6
CONTINUOUS
10
107.6519789999999972
20
-93.3660500000000013
11
107.6576149999999927
21
-93.3576149999999956
0
LINE
8
BLACK
6
CONTINUOUS
10
107.6576149999999927
20
-93.3576149999999956
11
107.6660499999999985
21
-93.351979
0
LINE
8
BLACK
6
CONTINUOUS
10
107.6660499999999985
20
-93.351979
11
107.6760000000000019
21
-93.3499999999999943
0
LINE
8
BLACK
6
CONTINUOUS
10
107.6760000000000019
20
-93.3499999999999943
11
108.9239999999999924
21
-93.3499999999999943
0
LINE
8
BLACK
6
CONTINUOUS
10
108.9239999999999924
20
-93.3499999999999943
11
108.9339499999999958
21
-93.351979
0
LINE
8
BLACK
6
CONTINUOUS
10
110.8339500000000015
20
-93.351979
11
110.8423849999999931
21
-93.3576149999999956
0
LINE
8
BLACK
6
CONTINUOUS
10
110.8423849999999931
20
-93.3576149999999956
11
110.8480209999999886
21
-93.3660500000000013
0
LINE
8
BLACK
6
CONTINUOUS
10
110.8480209999999886
20
-93.3660500000000013
11
110.8499999999999943
21
-93.3759999999999906
0
LINE
8
BLACK
6
CONTINUOUS
10
110.8499999999999943
20
-93.3759999999999906
11
110.8499999999999943
21
-95.6239999999999952
0
LINE
8
BLACK
6
CONTINUOUS
10
110.8499999999999943
20
-95.6239999999999952
11
110.8480209999999886
21
-95.6339499999999987
0
LINE
8
BLACK
6
CONTINUOUS
10
110.8480209999999886
20
-95.6339499999999987
11
110.8423849999999931
21
-95.6423849999999902
0
LINE
8
BLACK
6
CONTINUOUS
10
110.8423849999999931
20
-95.6423849999999902
11
110.8339500000000015
21
-95.648021
0
LINE
8
BLACK
6
CONTINUOUS
10
110.8339500000000015
20
-95.648021
11
110.8239999999999981
21
-95.6499999999999915
0
LINE
8
BLACK
6
CONTINUOUS
10
110.8239999999999981
20
-95.6499999999999915
11
109.5759999999999934
21
-95.6499999999999915
0
LINE
8
BLACK
6
CONTINUOUS
10
109.5759999999999934
20
-95.6499999999999915
11
109.56604999999999
21
-95.648021
0
LINE
8
BLACK
6
CONTINUOUS
10
109.56604999999999
20
-95.648021
11
109.5576149999999984
21
-95.6423849999999902
0
LINE
8
BLACK
6
CONTINUOUS
10
109.5576149999999984
20
-95.6423849999999902
11
109.5519789999999887
21
-95.6339499999999987
0
LINE
8
BLACK
6
CONTINUOUS
10
109.5519789999999887
20
-95.6339499999999987
11
109.5499999999999972
21
-95.6239999999999952
0
LINE
8
BLACK
6
CONTINUOUS
10
109.5499999999999972
20
-95.6239999999999952
11
109.5499999999999972
21
-93.3759999999999906
0
LINE
8
BLACK
6
CONTINUOUS
10
109.5499999999999972
20
-93.3759999999999906
11
109.5519789999999887
21
-93.3660500000000013
0
LINE
8
BLACK
6
CONTINUOUS
10
109.5519789999999887
20
-93.3660500000000013
11
109.5576149999999984
21
-93.3576149999999956
0
LINE
8
BLACK
6
CONTINUOUS
10
109.5576149999999984
20
-93.3576149999999956
11
109.56604999999999
21
-93.351979
0
LINE
8
BLACK
6
CONTINUOUS
10
109.56604999999999
20
-93.351979
11
109.5759999999999934
21
-93.3499999999999943
0
LINE
8
BLACK
6
CONTINUOUS
10
109.5759999999999934
20
-93.3499999999999943
11
110.8239999999999981
21
-93.3499999999999943
0
LINE
8
BLACK
6
CONTINUOUS
10
110.8239999999999981
20
-93.3499999999999943
11
110.8339500000000015
21
-93.351979
0
LINE
8
BLACK
6
CONTINUOUS
10
102.276890999999992
20
-90.538803999999999
11
102.4354129999999969
21
-90.5942730000000012
0
LINE
8
BLACK
6
CONTINUOUS
10
102.4354129999999969
20
-90.5942730000000012
11
102.5776169999999894
21
-90.6836259999999896
0
LINE
8
BLACK
6
CONTINUOUS
10
102.5776169999999894
20
-90.6836259999999896
11
102.6963739999999916
21
-90.8023829999999919
0
LINE
8
BLACK
6
CONTINUOUS
10
102.6963739999999916
20
-90.8023829999999919
11
102.7857269999999943
21
-90.9445869999999985
0
LINE
8
BLACK
6
CONTINUOUS
10
102.7857269999999943
20
-90.9445869999999985
11
102.8411959999999965
21
-91.1031089999999892
0
LINE
8
BLACK
6
CONTINUOUS
10
102.8411959999999965
20
-91.1031089999999892
11
102.8599999999999994
21
-91.269999999999996
0
LINE
8
BLACK
6
CONTINUOUS
10
102.8599999999999994
20
-91.269999999999996
11
102.8411959999999965
21
-91.4368910000000028
0
LINE
8
BLACK
6
CONTINUOUS
10
102.8411959999999965
20
-91.4368910000000028
11
102.7857269999999943
21
-91.5954129999999935
0
LINE
8
BLACK
6
CONTINUOUS
10
102.7857269999999943
20
-91.5954129999999935
11
102.6963739999999916
21
-91.7376170000000002
0
LINE
8
BLACK
6
CONTINUOUS
10
102.6963739999999916
20
-91.7376170000000002
11
102.5776169999999894
21
-91.8563740000000024
0
LINE
8
BLACK
6
CONTINUOUS
10
102.5776169999999894
20
-91.8563740000000024
11
102.4354129999999969
21
-91.9457269999999909
0
LINE
8
BLACK
6
CONTINUOUS
10
102.4354129999999969
20
-91.9457269999999909
11
102.276890999999992
21
-92.0011959999999931
0
LINE
8
BLACK
6
CONTINUOUS
10
102.276890999999992
20
-92.0011959999999931
11
102.1099999999999994
21
-92.019999999999996
0
LINE
8
BLACK
6
CONTINUOUS
10
102.1099999999999994
20
-92.019999999999996
11
101.9431089999999926
21
-92.0011959999999931
0
LINE
8
BLACK
6
CONTINUOUS
10
101.9431089999999926
20
-92.0011959999999931
11
101.7845870000000019
21
-91.9457269999999909
0
LINE
8
BLACK
6
CONTINUOUS
10
101.7845870000000019
20
-91.9457269999999909
11
101.6423829999999953
21
-91.8563740000000024
0
LINE
8
BLACK
6
CONTINUOUS
10
101.6423829999999953
20
-91.8563740000000024
11
101.523625999999993
21
-91.7376170000000002
0
LINE
8
BLACK
6
CONTINUOUS
10
101.523625999999993
20
-91.7376170000000002
11
101.4342729999999904
21
-91.5954129999999935
0
LINE
8
BLACK
6
CONTINUOUS
10
101.4342729999999904
20
-91.5954129999999935
11
101.3788040000000024
21
-91.4368910000000028
0
LINE
8
BLACK
6
CONTINUOUS
10
101.3788040000000024
20
-91.4368910000000028
11
101.3599999999999994
21
-91.269999999999996
0
LINE
8
BLACK
6
CONTINUOUS
10
101.3599999999999994
20
-91.269999999999996
11
101.3788040000000024
21
-91.1031089999999892
0
LINE
8
BLACK
6
CONTINUOUS
10
101.3788040000000024
20
-91.1031089999999892
11
101.4342729999999904
21
-90.9445869999999985
0
LINE
8
BLACK
6
CONTINUOUS
10
101.4342729999999904
20
-90.9445869999999985
11
101.523625999999993
21
-90.8023829999999919
0
LINE
8
BLACK
6
CONTINUOUS
10
101.523625999999993
20
-90.8023829999999919
11
101.6423829999999953
21
-90.6836259999999896
0
LINE
8
BLACK
6
CONTINUOUS
10
101.6423829999999953
20
-90.6836259999999896
11
101.7845870000000019
21
-90.5942730000000012
0
LINE
8
BLACK
6
CONTINUOUS
10
101.7845870000000019
20
-90.5942730000000012
11
101.9431089999999926
21
-90.538803999999999
0
LINE
8
BLACK
6
CONTINUOUS
10
101.9431089999999926
20
-90.538803999999999
11
102.1099999999999994
21
-90.519999999999996
0
LINE
8
BLACK
6
CONTINUOUS
10
102.1099999999999994
20
-90.519999999999996
11
102.276890999999992
21
-90.538803999999999
0
LINE
8
BLACK
6
CONTINUOUS
10
104.8168909999999983
20
-90.538803999999999
11
104.975412999999989
21
-90.5942730000000012
0
LINE
8
BLACK
6
CONTINUOUS
10
104.975412999999989
20
-90.5942730000000012
11
105.1176169999999956
21
-90.6836259999999896
0
LINE
8
BLACK
6
CONTINUOUS
10
105.1176169999999956
20
-90.6836259999999896
11
105.2363739999999979
21
-90.8023829999999919
0
LINE
8
BLACK
6
CONTINUOUS
10
105.2363739999999979
20
-90.8023829999999919
11
105.3257270000000005
21
-90.9445869999999985
0
LINE
8
BLACK
6
CONTINUOUS
10
105.3257270000000005
20
-90.9445869999999985
11
105.3811959999999885
21
-91.1031089999999892
0
LINE
8
BLACK
6
CONTINUOUS
10
105.3811959999999885
20
-91.1031089999999892
11
105.3999999999999915
21
-91.269999999999996
0
LINE
8
BLACK
6
CONTINUOUS
10
105.3999999999999915
20
-91.269999999999996
11
105.3811959999999885
21
-91.4368910000000028
0
LINE
8
BLACK
6
CONTINUOUS
10
105.3811959999999885
20
-91.4368910000000028
11
105.3257270000000005
21
-91.5954129999999935
0
LINE
8
BLACK
6
CONTINUOUS
10
105.3257270000000005
20
-91.5954129999999935
11
105.2363739999999979
21
-91.7376170000000002
0
LINE
8
BLACK
6
CONTINUOUS
10
105.2363739999999979
20
-91.7376170000000002
11
105.1176169999999956
21
-91.8563740000000024
0
LINE
8
BLACK
6
CONTINUOUS
10
105.1176169999999956
20
-91.8563740000000024
11
104.975412999999989
21
-91.9457269999999909
0
LINE
8
BLACK
6
CONTINUOUS
10
104.975412999999989
20
-91.9457269999999909
11
104.8168909999999983
21
-92.0011959999999931
0
LINE
8
BLACK
6
CONTINUOUS
10
104.8168909999999983
20
-92.0011959999999931
11
104.6499999999999915
21
-92.019999999999996
0
LINE
8
BLACK
6
CONTINUOUS
10
104.6499999999999915
20
-92.019999999999996
11
104.4831089999999989
21
-92.0011959999999931
0
LINE
8
BLACK
6
CONTINUOUS
10
104.4831089999999989
20
-92.0011959999999931
11
104.324586999999994
21
-91.9457269999999909
0
LINE
8
BLACK
6
CONTINUOUS
10
104.324586999999994
20
-91.9457269999999909
11
104.1823830000000015
21
-91.8563740000000024
0
LINE
8
BLACK
6
CONTINUOUS
10
104.1823830000000015
20
-91.8563740000000024
11
104.0636259999999993
21
-91.7376170000000002
0
LINE
8
BLACK
6
CONTINUOUS
10
104.0636259999999993
20
-91.7376170000000002
11
103.9742729999999966
21
-91.5954129999999935
0
LINE
8
BLACK
6
CONTINUOUS
10
103.9742729999999966
20
-91.5954129999999935
11
103.9188039999999944
21
-91.4368910000000028
0
LINE
8
BLACK
6
CONTINUOUS
10
103.9188039999999944
20
-91.4368910000000028
11
103.8999999999999915
21
-91.269999999999996
0
LINE
8
BLACK
6
CONTINUOUS
10
103.8999999999999915
20
-91.269999999999996
11
103.9188039999999944
21
-91.1031089999999892
0
LINE
8
BLACK
6
CONTINUOUS
10
103.9188039999999944
20
-91.1031089999999892
11
103.9742729999999966
21
-90.9445869999999985
0
LINE
8
BLACK
6
CONTINUOUS
10
103.9742729999999966
20
-90.9445869999999985
11
104.0636259999999993
21
-90.8023829999999919
0
LINE
8
BLACK
6
CONTINUOUS
10
104.0636259999999993
20
-90.8023829999999919
11
104.1823830000000015
21
-90.6836259999999896
0
LINE
8
BLACK
6
CONTINUOUS
10
104.1823830000000015
20
-90.6836259999999896
11
104.324586999999994
21
-90.5942730000000012
0
LINE
8
BLACK
6
CONTINUOUS
10
104.324586999999994
20
-90.5942730000000012
11
104.4831089999999989
21
-90.538803999999999
0
LINE
8
BLACK
6
CONTINUOUS
10
104.4831089999999989
20
-90.538803999999999
11
104.6499999999999915
21
-90.519999999999996
0
LINE
8
BLACK
6
CONTINUOUS
10
104.6499999999999915
20
-90.519999999999996
11
104.8168909999999983
21
-90.538803999999999
0
LINE
8
BLACK
6
CONTINUOUS
10
102.276890999999992
20
-87.9988039999999927
11
102.4354129999999969
21
-88.0542729999999949
0
LINE
8
BLACK
6
CONTINUOUS
10
102.4354129999999969
20
-88.0542729999999949
11
102.5776169999999894
21
-88.1436259999999976
0
LINE
8
BLACK
6
CONTINUOUS
10
102.5776169999999894
20
-88.1436259999999976
11
102.6963739999999916
21
-88.2623829999999998
0
LINE
8
BLACK
6
CONTINUOUS
10
102.6963739999999916
20
-88.2623829999999998
11
102.7857269999999943
21
-88.4045869999999923
0
LINE
8
BLACK
6
CONTINUOUS
10
102.7857269999999943
20
-88.4045869999999923
11
102.8411959999999965
21
-88.5631089999999972
0
LINE
8
BLACK
6
CONTINUOUS
10
102.8411959999999965
20
-88.5631089999999972
11
102.8599999999999994
21
-88.7299999999999898
0
LINE
8
BLACK
6
CONTINUOUS
10
102.8599999999999994
20
-88.7299999999999898
11
102.8411959999999965
21
-88.8968909999999966
0
LINE
8
BLACK
6
CONTINUOUS
10
102.8411959999999965
20
-88.8968909999999966
11
102.7857269999999943
21
-89.0554130000000015
0
LINE
8
BLACK
6
CONTINUOUS
10
102.7857269999999943
20
-89.0554130000000015
11
102.6963739999999916
21
-89.1976169999999939
0
LINE
8
BLACK
6
CONTINUOUS
10
102.6963739999999916
20
-89.1976169999999939
11
102.5776169999999894
21
-89.3163739999999962
0
LINE
8
BLACK
6
CONTINUOUS
10
102.5776169999999894
20
-89.3163739999999962
11
102.4354129999999969
21
-89.4057269999999988
0
LINE
8
BLACK
6
CONTINUOUS
10
102.4354129999999969
20
-89.4057269999999988
11
102.276890999999992
21
-89.461196000000001
0
LINE
8
BLACK
6
CONTINUOUS
10
102.276890999999992
20
-89.461196000000001
11
102.1099999999999994
21
-89.4799999999999898
0
LINE
8
BLACK
6
CONTINUOUS
10
102.1099999999999994
20
-89.4799999999999898
11
101.9431089999999926
21
-89.461196000000001
0
LINE
8
BLACK
6
CONTINUOUS
10
101.9431089999999926
20
-89.461196000000001
11
101.7845870000000019
21
-89.4057269999999988
0
LINE
8
BLACK
6
CONTINUOUS
10
101.7845870000000019
20
-89.4057269999999988
11
101.6423829999999953
21
-89.3163739999999962
0
LINE
8
BLACK
6
CONTINUOUS
10
101.6423829999999953
20
-89.3163739999999962
11
101.523625999999993
21
-89.1976169999999939
0
LINE
8
BLACK
6
CONTINUOUS
10
101.523625999999993
20
-89.1976169999999939
11
101.4342729999999904
21
-89.0554130000000015
0
LINE
8
BLACK
6
CONTINUOUS
10
101.4342729999999904
20
-89.0554130000000015
11
101.3788040000000024
21
-88.8968909999999966
0
LINE
8
BLACK
6
CONTINUOUS
10
101.3788040000000024
20
-88.8968909999999966
11
101.3599999999999994
21
-88.7299999999999898
0
LINE
8
BLACK
6
CONTINUOUS
10
101.3599999999999994
20
-88.7299999999999898
11
101.3788040000000024
21
-88.5631089999999972
0
LINE
8
BLACK
6
CONTINUOUS
10
101.3788040000000024
20
-88.5631089999999972
11
101.4342729999999904
21
-88.4045869999999923
0
LINE
8
BLACK
6
CONTINUOUS
10
101.4342729999999904
20
-88.4045869999999923
11
101.523625999999993
21
-88.2623829999999998
0
LINE
8
BLACK
6
CONTINUOUS
10
101.523625999999993
20
-88.2623829999999998
11
101.6423829999999953
21
-88.1436259999999976
0
LINE
8
BLACK
6
CONTINUOUS
10
101.6423829999999953
20
-88.1436259999999976
11
101.7845870000000019
21
-88.0542729999999949
0
LINE
8
BLACK
6
CONTINUOUS
10
101.7845870000000019
20
-88.0542729999999949
11
101.9431089999999926
21
-87.9988039999999927
0
LINE
8
BLACK
6
CONTINUOUS
10
101.9431089999999926
20
-87.9988039999999927
11
102.1099999999999994
21
-87.9799999999999898
0
LINE
8
BLACK
6
CONTINUOUS
10
102.1099999999999994
20
-87.9799999999999898
11
102.276890999999992
21
-87.9988039999999927
0
LINE
8
BLACK
6
CONTINUOUS
10
104.8168909999999983
20
-87.9988039999999927
11
104.975412999999989
21
-88.0542729999999949
0
LINE
8
BLACK
6
CONTINUOUS
10
104.975412999999989
20
-88.0542729999999949
11
105.1176169999999956
21
-88.1436259999999976
0
LINE
8
BLACK
6
CONTINUOUS
10
105.1176169999999956
20
-88.1436259999999976
11
105.2363739999999979
21
-88.2623829999999998
0
LINE
8
BLACK
6
CONTINUOUS
10
105.2363739999999979
20
-88.2623829999999998
11
105.3257270000000005
21
-88.4045869999999923
0
LINE
8
BLACK
6
CONTINUOUS
10
105.3257270000000005
20
-88.4045869999999923
11
105.3811959999999885
21
-88.5631089999999972
0
LINE
8
BLACK
6
CONTINUOUS
10
105.3811959999999885
20
-88.5631089999999972
11
105.3999999999999915
21
-88.7299999999999898
0
LINE
8
BLACK
6
CONTINUOUS
10
105.3999999999999915
20
-88.7299999999999898
11
105.3811959999999885
21
-88.8968909999999966
0
LINE
8
BLACK
6
CONTINUOUS
10
105.3811959999999885
20
-88.8968909999999966
11
105.3257270000000005
21
-89.0554130000000015
0
LINE
8
BLACK
6
CONTINUOUS
10
105.3257270000000005
20
-89.0554130000000015
11
105.2363739999999979
21
-89.1976169999999939
0
LINE
8
BLACK
6
CONTINUOUS
10
105.2363739999999979
20
-89.1976169999999939
11
105.1176169999999956
21
-89.3163739999999962
0
LINE
8
BLACK
6
CONTINUOUS
10
105.1176169999999956
20
-89.3163739999999962
11
104.975412999999989
21
-89.4057269999999988
0
LINE
8
BLACK
6
CONTINUOUS
10
104.975412999999989
20
-89.4057269999999988
11
104.8168909999999983
21
-89.461196000000001
0
LINE
8
BLACK
6
CONTINUOUS
10
104.8168909999999983
20
-89.461196000000001
11
104.6499999999999915
21
-89.4799999999999898
0
LINE
8
BLACK
6
CONTINUOUS
10
104.6499999999999915
20
-89.4799999999999898
11
104.4831089999999989
21
-89.461196000000001
0
LINE
8
BLACK
6
CONTINUOUS
10
104.4831089999999989
20
-89.461196000000001
11
104.324586999999994
21
-89.4057269999999988
0
LINE
8
BLACK
6
CONTINUOUS
10
104.324586999999994
20
-89.4057269999999988
11
104.1823830000000015
21
-89.3163739999999962
0
LINE
8
BLACK
6
CONTINUOUS
10
104.1823830000000015
20
-89.3163739999999962
11
104.0636259999999993
21
-89.1976169999999939
0
LINE
8
BLACK
6
CONTINUOUS
10
104.0636259999999993
20
-89.1976169999999939
11
103.9742729999999966
21
-89.0554130000000015
0
LINE
8
BLACK
6
CONTINUOUS
10
103.9742729999999966
20
-89.0554130000000015
11
103.9188039999999944
21
-88.8968909999999966
0
LINE
8
BLACK
6
CONTINUOUS
10
103.9188039999999944
20
-88.8968909999999966
11
103.8999999999999915
21
-88.7299999999999898
0
LINE
8
BLACK
6
CONTINUOUS
10
103.8999999999999915
20
-88.7299999999999898
11
103.9188039999999944
21
-88.5631089999999972
0
LINE
8
BLACK
6
CONTINUOUS
10
103.9188039999999944
20
-88.5631089999999972
11
103.9742729999999966
21
-88.4045869999999923
0
LINE
8
BLACK
6
CONTINUOUS
10
103.9742729999999966
20
-88.4045869999999923
11
104.0636259999999993
21
-88.2623829999999998
0
LINE
8
BLACK
6
CONTINUOUS
10
104.0636259999999993
20
-88.2623829999999998
11
104.1823830000000015
21
-88.1436259999999976
0
LINE
8
BLACK
6
CONTINUOUS
10
104.1823830000000015
20
-88.1436259999999976
11
104.324586999999994
21
-88.0542729999999949
0
LINE
8
BLACK
6
CONTINUOUS
10
104.324586999999994
20
-88.0542729999999949
11
104.4831089999999989
21
-87.9988039999999927
0
LINE
8
BLACK
6
CONTINUOUS
10
104.4831089999999989
20
-87.9988039999999927
11
104.6499999999999915
21
-87.9799999999999898
0
LINE
8
BLACK
6
CONTINUOUS
10
104.6499999999999915
20
-87.9799999999999898
11
104.8168909999999983
21
-87.9988039999999927
0
LINE
8
BLACK
6
CONTINUOUS
10
120.8839499999999987
20
-85.5519790000000029
11
120.8923849999999902
21
-85.5576149999999984
0
LINE
8
BLACK
6
CONTINUOUS
10
120.8923849999999902
20
-85.5576149999999984
11
120.898021
21
-85.56604999999999
0
LINE
8
BLACK
6
CONTINUOUS
10
120.898021
20
-85.56604999999999
11
120.8999999999999915
21
-85.5759999999999934
0
LINE
8
BLACK
6
CONTINUOUS
10
120.8999999999999915
20
-85.5759999999999934
11
120.8999999999999915
21
-86.8239999999999981
0
LINE
8
BLACK
6
CONTINUOUS
10
120.8999999999999915
20
-86.8239999999999981
11
120.898021
21
-86.8339500000000015
0
LINE
8
BLACK
6
CONTINUOUS
10
120.898021
20
-86.8339500000000015
11
120.8923849999999902
21
-86.8423849999999931
0
LINE
8
BLACK
6
CONTINUOUS
10
120.8923849999999902
20
-86.8423849999999931
11
120.8839499999999987
21
-86.8480210000000028
0
LINE
8
BLACK
6
CONTINUOUS
10
120.8839499999999987
20
-86.8480210000000028
11
120.8739999999999952
21
-86.8499999999999943
0
LINE
8
BLACK
6
CONTINUOUS
10
120.8739999999999952
20
-86.8499999999999943
11
118.6259999999999906
21
-86.8499999999999943
0
LINE
8
BLACK
6
CONTINUOUS
10
118.6259999999999906
20
-86.8499999999999943
11
118.6160500000000013
21
-86.8480210000000028
0
LINE
8
BLACK
6
CONTINUOUS
10
118.6160500000000013
20
-86.8480210000000028
11
118.6076149999999956
21
-86.8423849999999931
0
LINE
8
BLACK
6
CONTINUOUS
10
118.6076149999999956
20
-86.8423849999999931
11
118.601979
21
-86.8339500000000015
0
LINE
8
BLACK
6
CONTINUOUS
10
118.601979
20
-86.8339500000000015
11
118.5999999999999943
21
-86.8239999999999981
0
LINE
8
BLACK
6
CONTINUOUS
10
118.5999999999999943
20
-86.8239999999999981
11
118.5999999999999943
21
-85.5759999999999934
0
LINE
8
BLACK
6
CONTINUOUS
10
118.5999999999999943
20
-85.5759999999999934
11
118.601979
21
-85.56604999999999
0
LINE
8
BLACK
6
CONTINUOUS
10
118.601979
20
-85.56604999999999
11
118.6076149999999956
21
-85.5576149999999984
0
LINE
8
BLACK
6
CONTINUOUS
10
118.6076149999999956
20
-85.5576149999999984
11
118.6160500000000013
21
-85.5519790000000029
0
LINE
8
BLACK
6
CONTINUOUS
10
118.6160500000000013
20
-85.5519790000000029
11
118.6259999999999906
21
-85.5499999999999972
0
LINE
8
BLACK
6
CONTINUOUS
10
118.6259999999999906
20
-85.5499999999999972
11
120.8739999999999952
21
-85.5499999999999972
0
LINE
8
BLACK
6
CONTINUOUS
10
120.8739999999999952
20
-85.5499999999999972
11
120.8839499999999987
21
-85.5519790000000029
0
LINE
8
BLACK
6
CONTINUOUS
10
120.8839499999999987
20
-83.6519789999999972
11
120.8923849999999902
21
-83.6576149999999927
0
LINE
8
BLACK
6
CONTINUOUS
10
120.8923849999999902
20
-83.6576149999999927
11
120.898021
21
-83.6660499999999985
0
LINE
8
BLACK
6
CONTINUOUS
10
120.898021
20
-83.6660499999999985
11
120.8999999999999915
21
-83.6760000000000019
0
LINE
8
BLACK
6
CONTINUOUS
10
120.8999999999999915
20
-83.6760000000000019
11
120.8999999999999915
21
-84.9239999999999924
0
LINE
8
BLACK
6
CONTINUOUS
10
120.8999999999999915
20
-84.9239999999999924
11
120.898021
21
-84.9339499999999958
0
LINE
8
BLACK
6
CONTINUOUS
10
120.898021
20
-84.9339499999999958
11
120.8923849999999902
21
-84.9423850000000016
0
LINE
8
BLACK
6
CONTINUOUS
10
120.8923849999999902
20
-84.9423850000000016
11
120.8839499999999987
21
-84.9480209999999971
0
LINE
8
BLACK
6
CONTINUOUS
10
120.8839499999999987
20
-84.9480209999999971
11
120.8739999999999952
21
-84.9500000000000028
0
LINE
8
BLACK
6
CONTINUOUS
10
120.8739999999999952
20
-84.9500000000000028
11
118.6259999999999906
21
-84.9500000000000028
0
LINE
8
BLACK
6
CONTINUOUS
10
118.6259999999999906
20
-84.9500000000000028
11
118.6160500000000013
21
-84.9480209999999971
0
LINE
8
BLACK
6
CONTINUOUS
10
118.6160500000000013
20
-84.9480209999999971
11
118.6076149999999956
21
-84.9423850000000016
0
LINE
8
BLACK
6
CONTINUOUS
10
118.6076149999999956
20
-84.9423850000000016
11
118.601979
21
-84.9339499999999958
0
LINE
8
BLACK
6
CONTINUOUS
10
118.601979
20
-84.9339499999999958
11
118.5999999999999943
21
-84.9239999999999924
0
LINE
8
BLACK
6
CONTINUOUS
10
118.5999999999999943
20
-84.9239999999999924
11
118.5999999999999943
21
-83.6760000000000019
0
LINE
8
BLACK
6
CONTINUOUS
10
118.5999999999999943
20
-83.6760000000000019
11
118.601979
21
-83.6660499999999985
0
LINE
8
BLACK
6
CONTINUOUS
10
118.601979
20
-83.6660499999999985
11
118.6076149999999956
21
-83.6576149999999927
0
LINE
8
BLACK
6
CONTINUOUS
10
118.6076149999999956
20
-83.6576149999999927
11
118.6160500000000013
21
-83.6519789999999972
0
LINE
8
BLACK
6
CONTINUOUS
10
118.6160500000000013
20
-83.6519789999999972
11
118.6259999999999906
21
-83.6499999999999915
0
LINE
8
BLACK
6
CONTINUOUS
10
118.6259999999999906
20
-83.6499999999999915
11
120.8739999999999952
21
-83.6499999999999915
0
LINE
8
BLACK
6
CONTINUOUS
10
120.8739999999999952
20
-83.6499999999999915
11
120.8839499999999987
21
-83.6519789999999972
0
LINE
8
BLACK
6
CONTINUOUS
10
103.8614809999999977
20
-81.0022840000000031
11
103.8712129999999974
21
-81.0087869999999981
0
LINE
8
BLACK
6
CONTINUOUS
10
103.8712129999999974
20
-81.0087869999999981
11
103.8777159999999924
21
-81.0185189999999977
0
LINE
8
BLACK
6
CONTINUOUS
10
103.8777159999999924
20
-81.0185189999999977
11
103.8799999999999955
21
-81.0300000000000011
0
LINE
8
BLACK
6
CONTINUOUS
10
103.8799999999999955
20
-81.0300000000000011
11
103.8799999999999955
21
-82.9699999999999989
0
LINE
8
BLACK
6
CONTINUOUS
10
103.8799999999999955
20
-82.9699999999999989
11
103.8777159999999924
21
-82.9814810000000023
0
LINE
8
BLACK
6
CONTINUOUS
10
103.8777159999999924
20
-82.9814810000000023
11
103.8712129999999974
21
-82.9912130000000019
0
LINE
8
BLACK
6
CONTINUOUS
10
103.8712129999999974
20
-82.9912130000000019
11
103.8614809999999977
21
-82.9977159999999969
0
LINE
8
BLACK
6
CONTINUOUS
10
103.8614809999999977
20
-82.9977159999999969
11
103.8499999999999943
21
-83.
0
LINE
8
BLACK
6
CONTINUOUS
10
103.8499999999999943
20
-83.
11
101.9099999999999966
21
-83.
0
LINE
8
BLACK
6
CONTINUOUS
10
101.9099999999999966
20
-83.
11
101.8985189999999932
21
-82.9977159999999969
0
LINE
8
BLACK
6
CONTINUOUS
10
101.8985189999999932
20
-82.9977159999999969
11
101.8887869999999936
21
-82.9912130000000019
0
LINE
8
BLACK
6
CONTINUOUS
10
101.8887869999999936
20
-82.9912130000000019
11
101.8822839999999985
21
-82.9814810000000023
0
LINE
8
BLACK
6
CONTINUOUS
10
101.8822839999999985
20
-82.9814810000000023
11
101.8799999999999955
21
-82.9699999999999989
0
LINE
8
BLACK
6
CONTINUOUS
10
101.8799999999999955
20
-82.9699999999999989
11
101.8799999999999955
21
-81.0300000000000011
0
LINE
8
BLACK
6
CONTINUOUS
10
101.8799999999999955
20
-81.0300000000000011
11
101.8822839999999985
21
-81.0185189999999977
0
LINE
8
BLACK
6
CONTINUOUS
10
101.8822839999999985
20
-81.0185189999999977
11
101.8887869999999936
21
-81.0087869999999981
0
LINE
8
BLACK
6
CONTINUOUS
10
101.8887869999999936
20
-81.0087869999999981
11
101.8985189999999932
21
-81.0022840000000031
0
LINE
8
BLACK
6
CONTINUOUS
10
101.8985189999999932
20
-81.0022840000000031
11
101.9099999999999966
21
-81.
0
LINE
8
BLACK
6
CONTINUOUS
10
101.9099999999999966
20
-81.
11
103.8499999999999943
21
-81.
0
LINE
8
BLACK
6
CONTINUOUS
10
103.8499999999999943
20
-81.
11
103.8614809999999977
21
-81.0022840000000031
0
LINE
8
BLACK
6
CONTINUOUS
10
106.4014809999999898
20
-81.0022840000000031
11
106.4112129999999894
21
-81.0087869999999981
0
LINE
8
BLACK
6
CONTINUOUS
10
106.4112129999999894
20
-81.0087869999999981
11
106.4177159999999986
21
-81.0185189999999977
0
LINE
8
BLACK
6
CONTINUOUS
10
106.4177159999999986
20
-81.0185189999999977
11
106.4200000000000017
21
-81.0300000000000011
0
LINE
8
BLACK
6
CONTINUOUS
10
106.4200000000000017
20
-81.0300000000000011
11
106.4200000000000017
21
-82.9699999999999989
0
LINE
8
BLACK
6
CONTINUOUS
10
106.4200000000000017
20
-82.9699999999999989
11
106.4177159999999986
21
-82.9814810000000023
0
LINE
8
BLACK
6
CONTINUOUS
10
106.4177159999999986
20
-82.9814810000000023
11
106.4112129999999894
21
-82.9912130000000019
0
LINE
8
BLACK
6
CONTINUOUS
10
106.4112129999999894
20
-82.9912130000000019
11
106.4014809999999898
21
-82.9977159999999969
0
LINE
8
BLACK
6
CONTINUOUS
10
106.4014809999999898
20
-82.9977159999999969
11
106.3900000000000006
21
-83.
0
LINE
8
BLACK
6
CONTINUOUS
10
106.3900000000000006
20
-83.
11
104.4499999999999886
21
-83.
0
LINE
8
BLACK
6
CONTINUOUS
10
104.4499999999999886
20
-83.
11
104.4385189999999994
21
-82.9977159999999969
0
LINE
8
BLACK
6
CONTINUOUS
10
104.4385189999999994
20
-82.9977159999999969
11
104.4287869999999998
21
-82.9912130000000019
0
LINE
8
BLACK
6
CONTINUOUS
10
104.4287869999999998
20
-82.9912130000000019
11
104.4222839999999906
21
-82.9814810000000023
0
LINE
8
BLACK
6
CONTINUOUS
10
104.4222839999999906
20
-82.9814810000000023
11
104.4200000000000017
21
-82.9699999999999989
0
LINE
8
BLACK
6
CONTINUOUS
10
104.4200000000000017
20
-82.9699999999999989
11
104.4200000000000017
21
-81.0300000000000011
0
LINE
8
BLACK
6
CONTINUOUS
10
104.4200000000000017
20
-81.0300000000000011
11
104.4222839999999906
21
-81.0185189999999977
0
LINE
8
BLACK
6
CONTINUOUS
10
104.4222839999999906
20
-81.0185189999999977
11
104.4287869999999998
21
-81.0087869999999981
0
LINE
8
BLACK
6
CONTINUOUS
10
104.4287869999999998
20
-81.0087869999999981
11
104.4385189999999994
21
-81.0022840000000031
0
LINE
8
BLACK
6
CONTINUOUS
10
104.4385189999999994
20
-81.0022840000000031
11
104.4499999999999886
21
-81.
0
LINE
8
BLACK
6
CONTINUOUS
10
104.4499999999999886
20
-81.
11
106.3900000000000006
21
-81.
0
LINE
8
BLACK
6
CONTINUOUS
10
106.3900000000000006
20
-81.
11
106.4014809999999898
21
-81.0022840000000031
0
LINE
8
BLACK
6
CONTINUOUS
10
108.941480999999996
20
-81.0022840000000031
11
108.9512129999999956
21
-81.0087869999999981
0
LINE
8
BLACK
6
CONTINUOUS
10
108.9512129999999956
20
-81.0087869999999981
11
108.9577159999999907
21
-81.0185189999999977
0
LINE
8
BLACK
6
CONTINUOUS
10
108.9577159999999907
20
-81.0185189999999977
11
108.9599999999999937
21
-81.0300000000000011
0
LINE
8
BLACK
6
CONTINUOUS
10
108.9599999999999937
20
-81.0300000000000011
11
108.9599999999999937
21
-82.9699999999999989
0
LINE
8
BLACK
6
CONTINUOUS
10
108.9599999999999937
20
-82.9699999999999989
11
108.9577159999999907
21
-82.9814810000000023
0
LINE
8
BLACK
6
CONTINUOUS
10
108.9577159999999907
20
-82.9814810000000023
11
108.9512129999999956
21
-82.9912130000000019
0
LINE
8
BLACK
6
CONTINUOUS
10
108.9512129999999956
20
-82.9912130000000019
11
108.941480999999996
21
-82.9977159999999969
0
LINE
8
BLACK
6
CONTINUOUS
10
108.941480999999996
20
-82.9977159999999969
11
108.9299999999999926
21
-83.
0
LINE
8
BLACK
6
CONTINUOUS
10
108.9299999999999926
20
-83.
11
106.9899999999999949
21
-83.
0
LINE
8
BLACK
6
CONTINUOUS
10
106.9899999999999949
20
-83.
11
106.9785189999999915
21
-82.9977159999999969
0
LINE
8
BLACK
6
CONTINUOUS
10
106.9785189999999915
20
-82.9977159999999969
11
106.9687869999999918
21
-82.9912130000000019
0
LINE
8
BLACK
6
CONTINUOUS
10
106.9687869999999918
20
-82.9912130000000019
11
106.9622839999999968
21
-82.9814810000000023
0
LINE
8
BLACK
6
CONTINUOUS
10
106.9622839999999968
20
-82.9814810000000023
11
106.9599999999999937
21
-82.9699999999999989
0
LINE
8
BLACK
6
CONTINUOUS
10
106.9599999999999937
20
-82.9699999999999989
11
106.9599999999999937
21
-81.0300000000000011
0
LINE
8
BLACK
6
CONTINUOUS
10
106.9599999999999937
20
-81.0300000000000011
11
106.9622839999999968
21
-81.0185189999999977
0
LINE
8
BLACK
6
CONTINUOUS
10
106.9622839999999968
20
-81.0185189999999977
11
106.9687869999999918
21
-81.0087869999999981
0
LINE
8
BLACK
6
CONTINUOUS
10
106.9687869999999918
20
-81.0087869999999981
11
106.9785189999999915
21
-81.0022840000000031
0
LINE
8
BLACK
6
CONTINUOUS
10
106.9785189999999915
20
-81.0022840000000031
11
106.9899999999999949
21
-81.
0
LINE
8
BLACK
6
CONTINUOUS
10
106.9899999999999949
20
-81.
11
108.9299999999999926
21
-81.
0
LINE
8
BLACK
6
CONTINUOUS
10
108.9299999999999926
20
-81.
11
108.941480999999996
21
-81.0022840000000031
0
LINE
8
BLACK
6
CONTINUOUS
10
111.4814809999999881
20
-81.0022840000000031
11
111.4912130000000019
21
-81.0087869999999981
0
LINE
8
BLACK
6
CONTINUOUS
10
111.4912130000000019
20
-81.0087869999999981
11
111.4977159999999969
21
-81.0185189999999977
0
LINE
8
BLACK
6
CONTINUOUS
10
111.4977159999999969
20
-81.0185189999999977
11
111.5
21
-81.0300000000000011
0
LINE
8
BLACK
6
CONTINUOUS
10
111.5
20
-81.0300000000000011
11
111.5
21
-82.9699999999999989
0
LINE
8
BLACK
6
CONTINUOUS
10
111.5
20
-82.9699999999999989
11
111.4977159999999969
21
-82.9814810000000023
0
LINE
8
BLACK
6
CONTINUOUS
10
111.4977159999999969
20
-82.9814810000000023
11
111.4912130000000019
21
-82.9912130000000019
0
LINE
8
BLACK
6
CONTINUOUS
10
111.4912130000000019
20
-82.9912130000000019
11
111.4814809999999881
21
-82.9977159999999969
0
LINE
8
BLACK
6
CONTINUOUS
10
111.4814809999999881
20
-82.9977159999999969
11
111.4699999999999989
21
-83.
0
LINE
8
BLACK
6
CONTINUOUS
10
111.4699999999999989
20
-83.
11
109.5300000000000011
21
-83.
0
LINE
8
BLACK
6
CONTINUOUS
10
109.5300000000000011
20
-83.
11
109.5185189999999977
21
-82.9977159999999969
0
LINE
8
BLACK
6
CONTINUOUS
10
109.5185189999999977
20
-82.9977159999999969
11
109.5087869999999981
21
-82.9912130000000019
0
LINE
8
BLACK
6
CONTINUOUS
10
109.5087869999999981
20
-82.9912130000000019
11
109.5022839999999889
21
-82.9814810000000023
0
LINE
8
BLACK
6
CONTINUOUS
10
109.5022839999999889
20
-82.9814810000000023
11
109.5
21
-82.9699999999999989
0
LINE
8
BLACK
6
CONTINUOUS
10
109.5
20
-82.9699999999999989
11
109.5
21
-81.0300000000000011
0
LINE
8
BLACK
6
CONTINUOUS
10
109.5
20
-81.0300000000000011
11
109.5022839999999889
21
-81.0185189999999977
0
LINE
8
BLACK
6
CONTINUOUS
10
109.5022839999999889
20
-81.0185189999999977
11
109.5087869999999981
21
-81.0087869999999981
0
LINE
8
BLACK
6
CONTINUOUS
10
109.5087869999999981
20
-81.0087869999999981
11
109.5185189999999977
21
-81.0022840000000031
0
LINE
8
BLACK
6
CONTINUOUS
10
109.5185189999999977
20
-81.0022840000000031
11
109.5300000000000011
21
-81.
0
LINE
8
BLACK
6
CONTINUOUS
10
109.5300000000000011
20
-81.
11
111.4699999999999989
21
-81.
0
LINE
8
BLACK
6
CONTINUOUS
10
111.4699999999999989
20
-81.
11
111.4814809999999881
21
-81.0022840000000031
0
LINE
8
BLACK
6
CONTINUOUS
10
114.0214809999999943
20
-81.0022840000000031
11
114.0312129999999939
21
-81.0087869999999981
0
LINE
8
BLACK
6
CONTINUOUS
10
114.0312129999999939
20
-81.0087869999999981
11
114.037715999999989
21
-81.0185189999999977
0
LINE
8
BLACK
6
CONTINUOUS
10
114.037715999999989
20
-81.0185189999999977
11
114.039999999999992
21
-81.0300000000000011
0
LINE
8
BLACK
6
CONTINUOUS
10
114.039999999999992
20
-81.0300000000000011
11
114.039999999999992
21
-82.9699999999999989
0
LINE
8
BLACK
6
CONTINUOUS
10
114.039999999999992
20
-82.9699999999999989
11
114.037715999999989
21
-82.9814810000000023
0
LINE
8
BLACK
6
CONTINUOUS
10
114.037715999999989
20
-82.9814810000000023
11
114.0312129999999939
21
-82.9912130000000019
0
LINE
8
BLACK
6
CONTINUOUS
10
114.0312129999999939
20
-82.9912130000000019
11
114.0214809999999943
21
-82.9977159999999969
0
LINE
8
BLACK
6
CONTINUOUS
10
114.0214809999999943
20
-82.9977159999999969
11
114.0099999999999909
21
-83.
0
LINE
8
BLACK
6
CONTINUOUS
10
114.0099999999999909
20
-83.
11
112.0699999999999932
21
-83.
0
LINE
8
BLACK
6
CONTINUOUS
10
112.0699999999999932
20
-83.
11
112.0585189999999898
21
-82.9977159999999969
0
LINE
8
BLACK
6
CONTINUOUS
10
112.0585189999999898
20
-82.9977159999999969
11
112.0487869999999901
21
-82.9912130000000019
0
LINE
8
BLACK
6
CONTINUOUS
10
112.0487869999999901
20
-82.9912130000000019
11
112.0422839999999951
21
-82.9814810000000023
0
LINE
8
BLACK
6
CONTINUOUS
10
112.0422839999999951
20
-82.9814810000000023
11
112.039999999999992
21
-82.9699999999999989
0
LINE
8
BLACK
6
CONTINUOUS
10
112.039999999999992
20
-82.9699999999999989
11
112.039999999999992
21
-81.0300000000000011
0
LINE
8
BLACK
6
CONTINUOUS
10
112.039999999999992
20
-81.0300000000000011
11
112.0422839999999951
21
-81.0185189999999977
0
LINE
8
BLACK
6
CONTINUOUS
10
112.0422839999999951
20
-81.0185189999999977
11
112.0487869999999901
21
-81.0087869999999981
0
LINE
8
BLACK
6
CONTINUOUS
10
112.0487869999999901
20
-81.0087869999999981
11
112.0585189999999898
21
-81.0022840000000031
0
LINE
8
BLACK
6
CONTINUOUS
10
112.0585189999999898
20
-81.0022840000000031
11
112.0699999999999932
21
-81.
0
LINE
8
BLACK
6
CONTINUOUS
10
112.0699999999999932
20
-81.
11
114.0099999999999909
21
-81.
0
LINE
8
BLACK
6
CONTINUOUS
10
114.0099999999999909
20
-81.
11
114.0214809999999943
21
-81.0022840000000031
0
LINE
8
BLACK
6
CONTINUOUS
10
116.5614810000000006
20
-81.0022840000000031
11
116.5712130000000002
21
-81.0087869999999981
0
LINE
8
BLACK
6
CONTINUOUS
10
116.5712130000000002
20
-81.0087869999999981
11
116.5777159999999952
21
-81.0185189999999977
0
LINE
8
BLACK
6
CONTINUOUS
10
116.5777159999999952
20
-81.0185189999999977
11
116.5799999999999983
21
-81.0300000000000011
0
LINE
8
BLACK
6
CONTINUOUS
10
116.5799999999999983
20
-81.0300000000000011
11
116.5799999999999983
21
-82.9699999999999989
0
LINE
8
BLACK
6
CONTINUOUS
10
116.5799999999999983
20
-82.9699999999999989
11
116.5777159999999952
21
-82.9814810000000023
0
LINE
8
BLACK
6
CONTINUOUS
10
116.5777159999999952
20
-82.9814810000000023
11
116.5712130000000002
21
-82.9912130000000019
0
LINE
8
BLACK
6
CONTINUOUS
10
116.5712130000000002
20
-82.9912130000000019
11
116.5614810000000006
21
-82.9977159999999969
0
LINE
8
BLACK
6
CONTINUOUS
10
116.5614810000000006
20
-82.9977159999999969
11
116.5499999999999972
21
-83.
0
LINE
8
BLACK
6
CONTINUOUS
10
116.5499999999999972
20
-83.
11
114.6099999999999994
21
-83.
0
LINE
8
BLACK
6
CONTINUOUS
10
114.6099999999999994
20
-83.
11
114.598518999999996
21
-82.9977159999999969
0
LINE
8
BLACK
6
CONTINUOUS
10
114.598518999999996
20
-82.9977159999999969
11
114.5887869999999964
21
-82.9912130000000019
0
LINE
8
BLACK
6
CONTINUOUS
10
114.5887869999999964
20
-82.9912130000000019
11
114.5822840000000014
21
-82.9814810000000023
0
LINE
8
BLACK
6
CONTINUOUS
10
114.5822840000000014
20
-82.9814810000000023
11
114.5799999999999983
21
-82.9699999999999989
0
LINE
8
BLACK
6
CONTINUOUS
10
114.5799999999999983
20
-82.9699999999999989
11
114.5799999999999983
21
-81.0300000000000011
0
LINE
8
BLACK
6
CONTINUOUS
10
114.5799999999999983
20
-81.0300000000000011
11
114.5822840000000014
21
-81.0185189999999977
0
LINE
8
BLACK
6
CONTINUOUS
10
114.5822840000000014
20
-81.0185189999999977
11
114.5887869999999964
21
-81.0087869999999981
0
LINE
8
BLACK
6
CONTINUOUS
10
114.5887869999999964
20
-81.0087869999999981
11
114.598518999999996
21
-81.0022840000000031
0
LINE
8
BLACK
6
CONTINUOUS
10
114.598518999999996
20
-81.0022840000000031
11
114.6099999999999994
21
-81.
0
LINE
8
BLACK
6
CONTINUOUS
10
114.6099999999999994
20
-81.
11
116.5499999999999972
21
-81.
0
LINE
8
BLACK
6
CONTINUOUS
10
116.5499999999999972
20
-81.
11
116.5614810000000006
21
-81.0022840000000031
0
LINE
8
BLACK
6
CONTINUOUS
10
119.1014809999999926
20
-81.0022840000000031
11
119.1112129999999922
21
-81.0087869999999981
0
LINE
8
BLACK
6
CONTINUOUS
10
119.1112129999999922
20
-81.0087869999999981
11
119.1177160000000015
21
-81.0185189999999977
0
LINE
8
BLACK
6
CONTINUOUS
10
119.1177160000000015
20
-81.0185189999999977
11
119.1199999999999903
21
-81.0300000000000011
0
LINE
8
BLACK
6
CONTINUOUS
10
119.1199999999999903
20
-81.0300000000000011
11
119.1199999999999903
21
-82.9699999999999989
0
LINE
8
BLACK
6
CONTINUOUS
10
119.1199999999999903
20
-82.9699999999999989
11
119.1177160000000015
21
-82.9814810000000023
0
LINE
8
BLACK
6
CONTINUOUS
10
119.1177160000000015
20
-82.9814810000000023
11
119.1112129999999922
21
-82.9912130000000019
0
LINE
8
BLACK
6
CONTINUOUS
10
119.1112129999999922
20
-82.9912130000000019
11
119.1014809999999926
21
-82.9977159999999969
0
LINE
8
BLACK
6
CONTINUOUS
10
119.1014809999999926
20
-82.9977159999999969
11
119.0899999999999892
21
-83.
0
LINE
8
BLACK
6
CONTINUOUS
10
119.0899999999999892
20
-83.
11
117.1499999999999915
21
-83.
0
LINE
8
BLACK
6
CONTINUOUS
10
117.1499999999999915
20
-83.
11
117.1385189999999881
21
-82.9977159999999969
0
LINE
8
BLACK
6
CONTINUOUS
10
117.1385189999999881
20
-82.9977159999999969
11
117.1287869999999884
21
-82.9912130000000019
0
LINE
8
BLACK
6
CONTINUOUS
10
117.1287869999999884
20
-82.9912130000000019
11
117.1222839999999934
21
-82.9814810000000023
0
LINE
8
BLACK
6
CONTINUOUS
10
117.1222839999999934
20
-82.9814810000000023
11
117.1199999999999903
21
-82.9699999999999989
0
LINE
8
BLACK
6
CONTINUOUS
10
117.1199999999999903
20
-82.9699999999999989
11
117.1199999999999903
21
-81.0300000000000011
0
LINE
8
BLACK
6
CONTINUOUS
10
117.1199999999999903
20
-81.0300000000000011
11
117.1222839999999934
21
-81.0185189999999977
0
LINE
8
BLACK
6
CONTINUOUS
10
117.1222839999999934
20
-81.0185189999999977
11
117.1287869999999884
21
-81.0087869999999981
0
LINE
8
BLACK
6
CONTINUOUS
10
117.1287869999999884
20
-81.0087869999999981
11
117.1385189999999881
21
-81.0022840000000031
0
LINE
8
BLACK
6
CONTINUOUS
10
117.1385189999999881
20
-81.0022840000000031
11
117.1499999999999915
21
-81.
0
LINE
8
BLACK
6
CONTINUOUS
10
117.1499999999999915
20
-81.
11
119.0899999999999892
21
-81.
0
LINE
8
BLACK
6
CONTINUOUS
10
119.0899999999999892
20
-81.
11
119.1014809999999926
21
-81.0022840000000031
  0
ENDSEC
  0
EOF
